<?xml version="1.0" encoding="UTF-8"?>
<svg id="CURVAS" xmlns="http://www.w3.org/2000/svg" viewBox="0 0 68.06 68.06">
  <defs>
    <style>
      .cls-1 {
        fill: #2d6df6;
        stroke-width: 0px;
      }
    </style>
  </defs>
  <path class="cls-1" d="M46.18,21.69l-11.9-2.98c-.16-.04-.33-.04-.49,0l-11.9,2.98c-.45.11-.76.51-.76.97v7.16h0c.05,1.06.92,1.9,1.99,1.9v-8.28l10.9-2.73,10.9,2.73v12.77c0,1.3-.4,2.59-1.27,3.92-.86,1.32-2.2,2.66-4.02,3.98-2.38,1.73-4.79,2.82-4.86,2.85l-.75.34-.75-.34c-.07-.03-2.48-1.12-4.86-2.84-1.82-1.32-3.16-2.66-4.02-3.98-.87-1.32-1.27-2.8-1.27-4.11h0c-.05-1.06-.93-1.99-2-1.99v2.03h0c0,1.73.56,3.58,1.6,5.17,1.04,1.59,2.56,3.08,4.52,4.5,2.57,1.86,5.08,2.99,5.21,3.05l1.16.52c.26.12.56.12.82,0l1.16-.52c.14-.06,2.65-1.19,5.22-3.05,1.96-1.42,3.48-2.92,4.52-4.5,1.04-1.58,1.6-3.28,1.6-5.01v-13.55c0-.46-.31-.86-.76-.97Z"/>
  <path class="cls-1" d="M39.1,28.8h0l-6.84,6.83-2.34-2.34h0l-1.34-1.34c-.76.76-.78,1.97-.07,2.75h0l3.05,3.06c.19.19.44.29.71.29s.52-.11.71-.29l7.54-7.54h0s1.34-1.34,1.34-1.34c-.76-.76-1.97-.78-2.75-.07Z"/>
</svg>