<?xml version="1.0" encoding="UTF-8"?>
<svg id="CURVAS" xmlns="http://www.w3.org/2000/svg" viewBox="0 0 68.06 68.06">
  <defs>
    <style>
      .cls-1 {
        fill: #2d6df6;
        stroke-width: 0px;
      }
    </style>
  </defs>
  <path class="cls-1" d="M40.97,44.81h0c-1.96,1.23-4.27,1.95-6.76,1.95-3.52,0-6.71-1.43-9.02-3.74-2.31-2.31-3.73-5.49-3.74-9.02,0-2.49.72-4.8,1.95-6.76h0c.65-.89.46-2.14-.43-2.79l-1.16,1.58h0c-1.48,2.3-2.35,5.04-2.35,7.98,0,8.15,6.6,14.75,14.75,14.75,2.94,0,5.68-.87,7.98-2.36h0c.86-.66,1.04-1.9.39-2.77l-1.61,1.18Z"/>
  <path class="cls-1" d="M48.96,34c0-8.15-6.6-14.75-14.75-14.75-3.04,0-5.87.93-8.22,2.51h0c-.85.68-1,1.91-.34,2.78l1.59-1.21h0c2.01-1.31,4.39-2.08,6.97-2.08,3.52,0,6.71,1.43,9.02,3.74,2.31,2.31,3.73,5.49,3.74,9.02,0,2.58-.77,4.96-2.08,6.97h0c-.67.88-.5,2.13.38,2.8l1.19-1.55h0c1.58-2.35,2.51-5.18,2.51-8.22Z"/>
  <rect class="cls-1" x="33" y="25.63" width="2" height="12.56"/>
  <path class="cls-1" d="M32.5,42.37c0,.39.16.78.44,1.06.28.28.67.44,1.06.44s.78-.16,1.06-.44c.28-.28.44-.67.44-1.06s-.16-.78-.44-1.06-.67-.44-1.06-.44-.78.16-1.06.44-.44.67-.44,1.06Z"/>
</svg>