<?xml version="1.0" encoding="UTF-8"?>
<svg id="Curvas" xmlns="http://www.w3.org/2000/svg" viewBox="0 0 68.06 68.06">
  <defs>
    <style>
      .cls-1 {
        fill: #2d6df6;
        stroke-width: 0px;
      }
    </style>
  </defs>
  <path class="cls-1" d="m59.99,27.66l-4.67-15.21c-.74-2.38-2.92-3.92-5.3-3.92-.54,0-1.09.08-1.63.25l-4.75,1.46h0c-1.49.56-2.32,2.17-1.85,3.7l2.87-.88h0s4.61-1.42,4.61-1.42c.25-.08.5-.11.75-.11,1.09,0,2.1.7,2.43,1.8l.72,2.35-23.76,7.3h-9.29c-.03-.16-.05-.32-.05-.48,0-1.09.7-2.1,1.8-2.43l15.22-4.68h0c1.49-.56,2.32-2.17,1.85-3.7l-2.87.88h0l-15.08,4.63c-2.38.74-3.92,2.92-3.92,5.3,0,.16.02.32.04.48h-2.03c-2.22,0-4.03,1.8-4.03,4.03v5.89h.02c.03.51.18.99.43,1.4-2.88.37-5.1,2.83-5.11,5.81h0c0,2.83,2,5.18,4.66,5.74v7.59c0,2.22,1.8,4.03,4.03,4.03h18.14v-.02c1.59-.08,2.85-1.38,2.85-2.98H15.08c-.57,0-1.03-.46-1.03-1.03v-6.56h-.02c-.02-.32-.08-.62-.19-.91h4.3c3.24,0,5.86-2.62,5.86-5.86h0c0-3.24-2.62-5.86-5.86-5.86h-4.1v-7.24c0-.57.46-1.03,1.03-1.03h35.43c.57,0,1.03.46,1.03,1.03v26.44c0,.57-.46,1.03-1.03,1.03h-9.58v.02c-1.59.08-2.85,1.38-2.85,2.98h12.43c2.22,0,4.03-1.8,4.03-4.03v-18.3l1.66-.51h0s.12-.04.12-.04c2.38-.74,3.92-2.92,3.92-5.3,0-.54-.08-1.09-.25-1.63Zm-38.98,12.45h0c0,1.58-1.28,2.86-2.86,2.86h-5.89c-1.58,0-2.86-1.28-2.86-2.86h0c0-1.58,1.28-2.86,2.86-2.86h5.89c1.58,0,2.86,1.28,2.86,2.86Zm34.45-8.4h0s-.01,0-.02,0l-.12.04h0c-.29.12-.55.26-.79.44v-5.2c0-2.22-1.8-4.03-4.03-4.03h-10.87l14.42-4.43,3.07,9.99c.08.25.11.5.11.75,0,1.08-.7,2.08-1.78,2.42Z"/>
  <path class="cls-1" d="m11.05,40.03c0,.4.16.78.44,1.06.28.28.67.44,1.06.44s.78-.16,1.06-.44c.28-.28.44-.67.44-1.06s-.16-.78-.44-1.06-.67-.44-1.06-.44-.78.16-1.06.44-.44.67-.44,1.06Z"/>
  <rect class="cls-1" x="36.16" y="48.12" width="7.27" height="3"/>
</svg>