<?xml version="1.0" encoding="UTF-8"?>
<svg id="ICONOS_SURA" xmlns="http://www.w3.org/2000/svg" viewBox="0 0 68.06 68.06">
  <defs>
    <style>
      .cls-1 {
        fill: #2d6df6;
        stroke-width: 0px;
      }
    </style>
  </defs>
  <path class="cls-1" d="m28.63,42.57c2.43,2.77,4.36,4.54,4.39,4.56.57.53,1.45.53,2.02,0,.05-.05,5.06-4.62,9.09-10.62h0s0,0,0,0c.02-.03.04-.06.06-.08.09-.13.14-.27.18-.41.52-1.32.05-2.86-1.2-3.64l-1.55,2.49c-1.88,2.79-4.02,5.31-5.7,7.12-.75.81-1.39,1.46-1.89,1.95-1.29-1.28-3.61-3.71-5.88-6.69-1.59-2.09-3.15-4.45-4.29-6.83-1.14-2.38-1.85-4.78-1.85-6.91,0-3.32,1.34-6.32,3.52-8.5,2.18-2.18,5.17-3.52,8.5-3.52,3.32,0,6.32,1.34,8.5,3.52,2.18,2.18,3.52,5.17,3.52,8.49-.02,1.68-.34,3.08-1.16,5.17h0s-.02.05-.03.08c-.01.03-.02.06-.04.09-.03.08-.03.14-.07.24-.38,1.41.32,2.93,1.7,3.52,0,0,1.13-2.6,1.15-2.65.95-2.36,1.43-4.3,1.44-6.45h0c0-8.3-6.72-15.02-15.01-15.03-8.29,0-15.01,6.72-15.01,15.01,0,2.87.94,5.75,2.26,8.46,2,4.07,4.92,7.83,7.35,10.6Z"/>
  <path class="cls-1" d="m28.05,23.52c0,3.31,2.68,5.98,5.99,5.99,3.31,0,5.98-2.68,5.99-5.99,0-3.31-2.68-5.98-5.99-5.99-3.31,0-5.98,2.68-5.99,5.99Zm8.97,0c0,1.65-1.34,2.98-2.99,2.99-1.65,0-2.98-1.34-2.99-2.99,0-1.65,1.34-2.98,2.99-2.99,1.65,0,2.98,1.34,2.99,2.99Z"/>
  <path class="cls-1" d="m53.96,45.72c-.38-.67-.88-1.24-1.46-1.71-.88-.71-1.91-1.2-3.05-1.61-1.14-.4-2.41-.72-3.78-1.01h0c-1.57-.25-3.08.78-3.41,2.36l2.94.61h0c2.25.48,4.02,1.03,5.05,1.72.53.35.87.71,1.1,1.11.22.41.36.89.37,1.61,0,.23-.06.46-.21.74-.26.49-.88,1.13-1.86,1.73-1.47.91-3.69,1.75-6.38,2.33-2.69.58-5.85.92-9.23.92-5.14,0-9.79-.8-13.03-2.02-1.62-.61-2.87-1.33-3.64-2.02-.38-.34-.64-.67-.8-.95-.15-.29-.21-.51-.21-.74,0-.72.14-1.2.37-1.61.17-.3.4-.58.73-.85.49-.4,1.22-.78,2.17-1.11.91-.32,2.01-.6,3.25-.87h0l2.94-.61c-.33-1.57-1.83-2.61-3.41-2.36h0c-2.44.52-4.54,1.09-6.23,2.18-.84.55-1.57,1.26-2.07,2.15-.5.89-.75,1.95-.75,3.07,0,.77.21,1.52.57,2.17.63,1.15,1.65,2.07,2.91,2.85,1.9,1.17,4.4,2.08,7.33,2.72,2.93.64,6.29.99,9.86.99,5.45,0,10.39-.82,14.09-2.22,1.85-.7,3.4-1.54,4.58-2.58.59-.52,1.08-1.1,1.44-1.76.36-.66.57-1.4.57-2.17,0-1.13-.25-2.18-.75-3.07Z"/>
</svg>